<?xml version="1.0" standalone="no"?>
<!DOCTYPE svg PUBLIC "-//W3C//DTD SVG 20010904//EN"
 "http://www.w3.org/TR/2001/REC-SVG-20010904/DTD/svg10.dtd">
<svg version="1.0" xmlns="http://www.w3.org/2000/svg"
 width="264.000000pt" height="264.000000pt" viewBox="0 0 264.000000 264.000000"
 preserveAspectRatio="xMidYMid meet">
<metadata>
Created by potrace 1.11, written by Peter Selinger 2001-2013
</metadata>
<g transform="translate(0.000000,264.000000) scale(0.100000,-0.100000)"
fill="#000000" stroke="none">
<path d="M1146 2629 c-561 -77 -1004 -495 -1123 -1059 -25 -118 -25 -382 0
-500 59 -279 194 -522 393 -708 186 -175 399 -285 654 -339 118 -25 382 -25
500 0 280 60 522 194 710 394 171 183 276 383 331 634 31 136 33 388 6 519
-113 536 -511 935 -1042 1045 -95 20 -332 28 -429 14z m115 -489 c85 -16 172
-63 239 -127 l60 -59 0 83 0 83 200 0 200 0 0 -577 c-1 -643 -4 -683 -63 -806
-62 -129 -158 -213 -305 -267 -114 -41 -209 -55 -372 -54 -149 1 -218 10 -352
46 l-78 20 0 149 c0 82 4 149 9 149 4 0 41 -15 82 -34 239 -110 501 -96 612
34 43 50 64 118 72 235 l7 90 -68 -66 c-74 -71 -118 -98 -203 -123 -67 -20
-198 -21 -267 -2 -259 69 -424 370 -385 701 20 173 72 287 177 393 116 116
270 163 435 132z"/>
<path d="M1239 1857 c-25 -7 -60 -23 -77 -36 -67 -47 -112 -168 -112 -298 0
-210 79 -327 230 -340 81 -8 148 16 198 71 63 68 77 119 77 276 0 120 -3 141
-23 185 -42 90 -104 138 -197 148 -29 4 -70 1 -96 -6z"/>
</g>
</svg>
